<svg width="118" height="113" viewBox="0 0 118 113" fill="none" xmlns="http://www.w3.org/2000/svg">
<path d="M39.1535 14.442H38.0743V5.16174H43.2477V6.12024H39.1535V9.51624H43.0001V10.4747H39.1535V14.442ZM52.5864 10.9572C52.5864 12.0913 52.3007 12.9778 51.7294 13.6168C51.1581 14.2516 50.3689 14.569 49.3618 14.569C48.7397 14.569 48.1874 14.423 47.705 14.131C47.2226 13.839 46.8502 13.42 46.5878 12.8741C46.3255 12.3282 46.1943 11.6892 46.1943 10.9572C46.1943 9.82304 46.4778 8.94071 47.0449 8.31018C47.6119 7.67542 48.399 7.35803 49.4062 7.35803C50.3795 7.35803 51.1518 7.68176 51.7231 8.32922C52.2986 8.97668 52.5864 9.85266 52.5864 10.9572ZM47.2861 10.9572C47.2861 11.8458 47.4638 12.5229 47.8193 12.9884C48.1747 13.4539 48.6974 13.6866 49.3871 13.6866C50.0769 13.6866 50.5995 13.456 50.955 12.9948C51.3147 12.5293 51.4946 11.8501 51.4946 10.9572C51.4946 10.0727 51.3147 9.40198 50.955 8.94495C50.5995 8.48368 50.0727 8.25305 49.3744 8.25305C48.6847 8.25305 48.1642 8.47945 47.8129 8.93225C47.4617 9.38505 47.2861 10.06 47.2861 10.9572ZM62.3948 10.9572C62.3948 12.0913 62.1091 12.9778 61.5378 13.6168C60.9665 14.2516 60.1773 14.569 59.1702 14.569C58.5481 14.569 57.9958 14.423 57.5134 14.131C57.031 13.839 56.6586 13.42 56.3962 12.8741C56.1339 12.3282 56.0027 11.6892 56.0027 10.9572C56.0027 9.82304 56.2862 8.94071 56.8533 8.31018C57.4203 7.67542 58.2074 7.35803 59.2146 7.35803C60.1879 7.35803 60.9602 7.68176 61.5315 8.32922C62.107 8.97668 62.3948 9.85266 62.3948 10.9572ZM57.0945 10.9572C57.0945 11.8458 57.2722 12.5229 57.6277 12.9884C57.9831 13.4539 58.5058 13.6866 59.1955 13.6866C59.8853 13.6866 60.4079 13.456 60.7634 12.9948C61.1231 12.5293 61.303 11.8501 61.303 10.9572C61.303 10.0727 61.1231 9.40198 60.7634 8.94495C60.4079 8.48368 59.8811 8.25305 59.1828 8.25305C58.4931 8.25305 57.9726 8.47945 57.6213 8.93225C57.2701 9.38505 57.0945 10.06 57.0945 10.9572ZM68.4453 13.6993C68.6315 13.6993 68.8114 13.6866 68.9849 13.6613C69.1584 13.6316 69.2959 13.602 69.3975 13.5724V14.3785C69.2832 14.4336 69.114 14.478 68.8897 14.5118C68.6696 14.5499 68.4707 14.569 68.293 14.569C66.9473 14.569 66.2744 13.8601 66.2744 12.4425V8.30383H65.2779V7.79602L66.2744 7.35803L66.7188 5.87268H67.3282V7.48499H69.3467V8.30383H67.3282V12.3981C67.3282 12.817 67.4276 13.1386 67.6265 13.3629C67.8254 13.5872 68.0983 13.6993 68.4453 13.6993ZM75.9813 7.37073C76.8953 7.37073 77.6042 7.68388 78.1077 8.31018C78.6156 8.93225 78.8695 9.81458 78.8695 10.9572C78.8695 12.0997 78.6134 12.9884 78.1014 13.6232C77.5936 14.2537 76.8869 14.569 75.9813 14.569C75.5285 14.569 75.1138 14.4865 74.7371 14.3214C74.3647 14.1521 74.0516 13.894 73.7977 13.547H73.7215L73.4993 14.442H72.744V4.56506H73.7977V6.96448C73.7977 7.50191 73.7808 7.98433 73.7469 8.41174H73.7977C74.2886 7.71773 75.0164 7.37073 75.9813 7.37073ZM75.8289 8.25305C75.1095 8.25305 74.5911 8.46041 74.2738 8.87512C73.9564 9.2856 73.7977 9.97961 73.7977 10.9572C73.7977 11.9347 73.9606 12.6351 74.2865 13.0582C74.6123 13.4772 75.1349 13.6866 75.8543 13.6866C76.5018 13.6866 76.9842 13.4518 77.3016 12.9821C77.619 12.5081 77.7777 11.8289 77.7777 10.9445C77.7777 10.0389 77.619 9.36389 77.3016 8.91956C76.9842 8.47522 76.4933 8.25305 75.8289 8.25305ZM86.945 14.442L86.7355 13.4518H86.6847C86.3377 13.8877 85.9907 14.1839 85.6437 14.3405C85.3009 14.4928 84.8714 14.569 84.3551 14.569C83.6653 14.569 83.1237 14.3912 82.7301 14.0358C82.3408 13.6803 82.1461 13.1746 82.1461 12.5187C82.1461 11.1137 83.2697 10.3774 85.5167 10.3097L86.6974 10.2716V9.83997C86.6974 9.29407 86.5789 8.89205 86.3419 8.63391C86.1092 8.37154 85.7347 8.24036 85.2184 8.24036C84.6386 8.24036 83.9827 8.41809 83.2506 8.77356L82.9269 7.96741C83.2697 7.78121 83.6442 7.63521 84.0504 7.52942C84.4609 7.42362 84.8714 7.37073 85.2819 7.37073C86.1113 7.37073 86.7249 7.55481 87.1227 7.92297C87.5247 8.29114 87.7257 8.88147 87.7257 9.69397V14.442H86.945ZM84.5646 13.6993C85.2205 13.6993 85.7347 13.5195 86.1071 13.1598C86.4837 12.8001 86.672 12.2965 86.672 11.649V11.0206L85.6183 11.0651C84.7804 11.0947 84.1753 11.2259 83.8029 11.4586C83.4347 11.6871 83.2506 12.0447 83.2506 12.5314C83.2506 12.9122 83.3649 13.2021 83.5934 13.401C83.8261 13.5999 84.1499 13.6993 84.5646 13.6993ZM92.9067 14.442H91.853V4.56506H92.9067V14.442ZM98.1448 14.442H97.091V4.56506H98.1448V14.442Z" fill="black"/>
<path d="M41.0212 57.7973H39.9421V49.4755H37.0031V48.517H43.9601V49.4755H41.0212V57.7973ZM50.3281 50.7133C50.637 50.7133 50.9142 50.7387 51.1597 50.7895L51.0137 51.767C50.7259 51.7036 50.472 51.6718 50.2519 51.6718C49.6891 51.6718 49.2067 51.9003 48.8047 52.3574C48.4069 52.8144 48.208 53.3836 48.208 54.0649V57.7973H47.1543V50.8403H48.0239L48.1445 52.1288H48.1953C48.4534 51.676 48.7645 51.3269 49.1284 51.0815C49.4923 50.836 49.8922 50.7133 50.3281 50.7133ZM58.6892 57.7973L58.4798 56.8071H58.429C58.082 57.2429 57.735 57.5392 57.388 57.6957C57.0452 57.8481 56.6157 57.9243 56.0994 57.9243C55.4096 57.9243 54.868 57.7465 54.4744 57.3911C54.0851 57.0356 53.8904 56.5299 53.8904 55.874C53.8904 54.469 55.0139 53.7327 57.261 53.665L58.4417 53.6269V53.1953C58.4417 52.6494 58.3232 52.2473 58.0862 51.9892C57.8535 51.7268 57.479 51.5956 56.9627 51.5956C56.3829 51.5956 55.727 51.7734 54.9949 52.1288L54.6712 51.3227C55.0139 51.1365 55.3885 50.9905 55.7947 50.8847C56.2052 50.7789 56.6157 50.726 57.0262 50.726C57.8556 50.726 58.4692 50.9101 58.867 51.2783C59.269 51.6464 59.47 52.2368 59.47 53.0493V57.7973H58.6892ZM56.3089 57.0546C56.9648 57.0546 57.479 56.8748 57.8513 56.5151C58.228 56.1554 58.4163 55.6518 58.4163 55.0043V54.3759L57.3626 54.4203C56.5247 54.45 55.9195 54.5812 55.5471 54.8139C55.179 55.0424 54.9949 55.4 54.9949 55.8867C54.9949 56.2675 55.1092 56.5574 55.3377 56.7563C55.5704 56.9552 55.8942 57.0546 56.3089 57.0546ZM65.1207 57.7973L62.4801 50.8403H63.6099L65.108 54.9662C65.4465 55.9311 65.6454 56.5574 65.7047 56.8452H65.7555C65.802 56.6209 65.948 56.1575 66.1934 55.455C66.4431 54.7483 66.9996 53.2101 67.8629 50.8403H68.9928L66.3521 57.7973H65.1207ZM74.9989 57.9243C73.9706 57.9243 73.1581 57.6111 72.5614 56.9848C71.969 56.3585 71.6727 55.4889 71.6727 54.3759C71.6727 53.2545 71.9478 52.3637 72.4979 51.7036C73.0523 51.0434 73.795 50.7133 74.726 50.7133C75.5977 50.7133 76.2875 51.0011 76.7953 51.5766C77.3031 52.1479 77.557 52.9033 77.557 53.8427V54.5092H72.7645C72.7857 55.3259 72.9909 55.9459 73.3803 56.3691C73.7738 56.7923 74.3261 57.0038 75.037 57.0038C75.786 57.0038 76.5266 56.8473 77.2587 56.5341V57.4736C76.8863 57.6344 76.5329 57.7486 76.1986 57.8163C75.8685 57.8883 75.4686 57.9243 74.9989 57.9243ZM74.7133 51.5956C74.1547 51.5956 73.7082 51.7776 73.3739 52.1415C73.0438 52.5055 72.8492 53.0091 72.7899 53.6523H76.4271C76.4271 52.9879 76.279 52.4801 75.9828 52.1288C75.6866 51.7734 75.2634 51.5956 74.7133 51.5956ZM82.3635 57.7973H81.3098V47.9203H82.3635V57.7973Z" fill="black"/>
<path d="M45.2927 106.576L42.1442 98.3491H42.0935C42.1527 99.0008 42.1823 99.7752 42.1823 100.672V106.576H41.1858V97.2953H42.8108L45.7497 104.951H45.8005L48.7649 97.2953H50.3772V106.576H49.2981V100.596C49.2981 99.9106 49.3277 99.1658 49.3869 98.3618H49.3361L46.1623 106.576H45.2927ZM55.7105 99.6186V104.132C55.7105 104.699 55.8395 105.122 56.0977 105.401C56.3558 105.681 56.7599 105.82 57.3101 105.82C58.0379 105.82 58.569 105.621 58.9033 105.224C59.2419 104.826 59.4111 104.176 59.4111 103.275V99.6186H60.4649V106.576H59.5952L59.4429 105.643H59.3857C59.1699 105.985 58.8695 106.248 58.4844 106.43C58.1035 106.612 57.6677 106.703 57.1768 106.703C56.3304 106.703 55.6956 106.502 55.2725 106.1C54.8535 105.698 54.6441 105.054 54.6441 104.17V99.6186H55.7105ZM69.1434 104.678C69.1434 105.325 68.9022 105.824 68.4197 106.176C67.9373 106.527 67.2602 106.703 66.3885 106.703C65.466 106.703 64.7466 106.557 64.2303 106.265V105.287C64.5646 105.456 64.9222 105.59 65.303 105.687C65.6881 105.784 66.0584 105.833 66.4139 105.833C66.964 105.833 67.3872 105.746 67.6834 105.573C67.9796 105.395 68.1277 105.126 68.1277 104.767C68.1277 104.496 68.0093 104.265 67.7723 104.075C67.5395 103.88 67.0825 103.651 66.4012 103.389C65.7537 103.148 65.2925 102.938 65.0174 102.761C64.7466 102.579 64.5434 102.373 64.408 102.145C64.2768 101.916 64.2112 101.643 64.2112 101.326C64.2112 100.759 64.4419 100.313 64.9031 99.9868C65.3644 99.6567 65.997 99.4916 66.8011 99.4916C67.5501 99.4916 68.2822 99.644 68.9974 99.9487L68.6229 100.806C67.9246 100.518 67.292 100.374 66.7249 100.374C66.2256 100.374 65.8489 100.452 65.595 100.609C65.3411 100.765 65.2142 100.981 65.2142 101.256C65.2142 101.442 65.2607 101.601 65.3538 101.732C65.4511 101.864 65.6056 101.988 65.8172 102.107C66.0288 102.225 66.435 102.397 67.0359 102.621C67.8611 102.921 68.4176 103.224 68.7054 103.529C68.9974 103.833 69.1434 104.216 69.1434 104.678ZM73.8673 106.576H72.8136V99.6186H73.8673V106.576ZM72.7247 97.7333C72.7247 97.4921 72.784 97.3165 72.9025 97.2065C73.0209 97.0922 73.1691 97.0351 73.3468 97.0351C73.5161 97.0351 73.6621 97.0922 73.7848 97.2065C73.9075 97.3207 73.9689 97.4964 73.9689 97.7333C73.9689 97.9703 73.9075 98.1481 73.7848 98.2665C73.6621 98.3808 73.5161 98.4379 73.3468 98.4379C73.1691 98.4379 73.0209 98.3808 72.9025 98.2665C72.784 98.1481 72.7247 97.9703 72.7247 97.7333ZM80.8319 106.703C79.8248 106.703 79.044 106.394 78.4897 105.776C77.9395 105.154 77.6645 104.276 77.6645 103.142C77.6645 101.978 77.9438 101.079 78.5023 100.444C79.0652 99.809 79.865 99.4916 80.9018 99.4916C81.2361 99.4916 81.5704 99.5276 81.9047 99.5995C82.239 99.6715 82.5014 99.7561 82.6918 99.8535L82.3681 100.748C82.1353 100.655 81.8814 100.579 81.6064 100.52C81.3313 100.456 81.088 100.425 80.8764 100.425C79.463 100.425 78.7563 101.326 78.7563 103.129C78.7563 103.984 78.9276 104.64 79.2704 105.097C79.6174 105.554 80.1295 105.782 80.8065 105.782C81.3863 105.782 81.9809 105.657 82.5902 105.408V106.341C82.1247 106.582 81.5386 106.703 80.8319 106.703Z" fill="black"/>
<mask id="mask0_0_2065" style="mask-type:alpha" maskUnits="userSpaceOnUse" x="0" y="92" width="21" height="21">
<path fill-rule="evenodd" clip-rule="evenodd" d="M0 92.5756V112.086H20.1397V92.5756H0H0Z" fill="white"/>
</mask>
<g mask="url(#mask0_0_2065)">
<path fill-rule="evenodd" clip-rule="evenodd" d="M16.125 108.187C14.824 108.187 13.7657 107.193 13.7657 105.972C13.7657 104.75 14.824 103.756 16.125 103.756C17.4261 103.756 18.4844 104.75 18.4844 105.972C18.4844 107.193 17.4261 108.187 16.125 108.187ZM8.02941 96.3778L18.4844 94.3107V96.3135L8.02941 98.3802V96.3778ZM4.01475 110.531C2.71395 110.531 1.65532 109.538 1.65532 108.316C1.65532 107.094 2.71369 106.101 4.01475 106.101C5.31581 106.101 6.37409 107.094 6.37409 108.316C6.37409 109.538 5.31555 110.531 4.01475 110.531ZM20.1397 93.3529C20.1397 93.1186 20.0272 92.8972 19.8338 92.7494C19.6398 92.602 19.3851 92.5437 19.1416 92.5926L7.03131 94.9866C6.64834 95.0623 6.37409 95.3796 6.37409 95.747V99.3378V105.272C5.71085 104.817 4.89698 104.546 4.01475 104.546C1.80102 104.546 0 106.237 0 108.316C0 110.394 1.80102 112.086 4.01475 112.086C6.22848 112.086 8.02941 110.394 8.02941 108.316V99.9689L18.4844 97.9018V102.928C17.8212 102.474 17.0074 102.202 16.125 102.202C13.9116 102.202 12.1104 103.893 12.1104 105.972C12.1104 108.05 13.9113 109.741 16.125 109.741C18.3388 109.741 20.1397 108.05 20.1397 105.972V96.994C20.1397 96.9862 20.1375 96.9787 20.1373 96.9709C20.1375 96.9618 20.1397 96.9532 20.1397 96.9441V93.3529Z" fill="black"/>
</g>
<path fill-rule="evenodd" clip-rule="evenodd" d="M2.00919 49.0583C2.71556 49.1684 3.90524 49.095 5.13209 48.0311C5.72693 47.4808 6.39612 47.5909 6.73072 47.6643C7.2512 47.811 7.58579 48.1412 7.66015 48.398C8.0691 49.9021 7.39991 50.4157 6.54483 51.076C5.80128 51.6263 4.72314 52.5067 5.46668 54.0475C5.87564 54.8546 5.98717 55.4415 5.83846 55.8084C5.68975 56.1019 5.31798 56.3954 4.61161 56.6522C2.82709 55.4782 1.67459 53.4605 1.67459 51.1861C1.67459 50.4157 1.78613 49.7186 2.00919 49.0583ZM8.36652 44.546C9.59337 44.546 10.7087 44.8762 11.7125 45.4265C11.0061 45.8667 10.5972 46.5637 10.5972 47.4808C10.5972 48.7648 11.1548 49.8287 11.6381 50.6725C11.8984 51.1861 12.233 51.773 12.1586 51.9931C11.7868 52.9836 11.824 53.9374 12.2701 54.5978C12.4932 54.8913 12.865 55.2214 13.497 55.4049C12.2701 56.8356 10.4485 57.7527 8.4037 57.7527C7.69733 57.7527 6.99096 57.6427 6.32176 57.4225C6.69354 57.1657 7.02813 56.7989 7.2512 56.3587C7.58579 55.5516 7.43709 54.6345 6.84225 53.3872C6.61918 52.9836 6.65636 52.8736 7.47426 52.2132C8.4037 51.5162 9.77926 50.4523 9.11007 47.9944C8.887 47.1874 8.14345 46.527 7.17684 46.2335C6.0987 45.9034 5.02056 46.1602 4.16548 46.8939C3.64499 47.3708 3.12451 47.5175 2.75274 47.5542C3.90524 45.7933 5.98717 44.546 8.36652 44.546ZM15.0584 51.1494C15.0584 52.2132 14.7982 53.2037 14.3521 54.0842C14.0175 54.0842 13.6457 54.0108 13.4598 53.754C13.2739 53.4972 13.3111 53.0203 13.497 52.5067C13.8316 51.663 13.3855 50.8192 12.9022 49.9754C12.4932 49.2417 12.0471 48.398 12.0471 47.4808C12.0471 47.0406 12.233 46.7838 12.6047 46.6004C12.7534 46.527 12.865 46.4903 13.0137 46.4537C14.2777 47.6643 15.0584 49.3151 15.0584 51.1494ZM8.36652 59.2201C12.865 59.2201 16.5455 55.5883 16.5455 51.1494C16.5455 46.7105 12.865 43.0786 8.36652 43.0786C3.86806 43.0786 0.1875 46.7105 0.1875 51.1494C0.1875 55.5883 3.86806 59.2201 8.36652 59.2201Z" fill="black"/>
<mask id="mask1_0_2065" style="mask-type:alpha" maskUnits="userSpaceOnUse" x="0" y="41" width="20" height="25">
<path fill-rule="evenodd" clip-rule="evenodd" d="M0.596436 65.4566H19.1479V53.6004V41.7442H0.596436V65.4566V65.4566Z" fill="white"/>
</mask>
<g mask="url(#mask1_0_2065)">
<path fill-rule="evenodd" clip-rule="evenodd" d="M19.1479 51.1494C19.1479 47.2608 16.9917 43.7023 13.5713 41.8313C13.1996 41.6479 12.7534 41.758 12.5675 42.1248C12.3817 42.4917 12.4932 42.9319 12.865 43.1153C15.8392 44.7295 17.698 47.811 17.698 51.1494C17.698 56.212 13.5342 60.3207 8.40368 60.3207C5.94998 60.3207 3.6078 59.3669 1.86047 57.6794C1.56305 57.3859 1.07974 57.3859 0.8195 57.6794C0.522081 57.9728 0.522081 58.4498 0.8195 58.7065C2.67837 60.5041 5.0949 61.568 7.66013 61.7514V63.9892H5.42949C5.02054 63.9892 4.68595 64.3194 4.68595 64.7229C4.68595 65.1265 5.02054 65.4566 5.42949 65.4566H11.415C11.824 65.4566 12.1586 65.1265 12.1586 64.7229C12.1586 64.3194 11.824 63.9892 11.415 63.9892H9.14723V61.7514C14.7238 61.3846 19.1479 56.7989 19.1479 51.1494Z" fill="black"/>
</g>
<g style="mix-blend-mode:multiply">
<mask id="mask2_0_2065" style="mask-type:alpha" maskUnits="userSpaceOnUse" x="0" y="1" width="19" height="18">
<path fill-rule="evenodd" clip-rule="evenodd" d="M18.0645 1.57941V18.6891H0.1875V1.57941H18.0645V1.57941Z" fill="white"/>
</mask>
<g mask="url(#mask2_0_2065)">
<path fill-rule="evenodd" clip-rule="evenodd" d="M13.4237 2.6313C9.10124 0.363753 3.6562 1.88409 1.28659 6.02075C-1.08303 10.1578 0.506433 15.3689 4.82914 17.637C9.1509 19.9051 14.5959 18.384 16.9648 14.2474C19.3353 10.1103 17.746 4.89868 13.4237 2.6313Z" fill="black"/>
</g>
<path fill-rule="evenodd" clip-rule="evenodd" d="M15.8197 13.6466C15.7933 13.6929 15.7642 13.7374 15.737 13.7835L14.3622 13.0474C14.2768 13.0014 14.1813 12.9849 14.0887 12.995C13.9965 13.0057 13.9073 13.0433 13.8363 13.1069L11.2329 15.4132C11.0889 15.5401 11.0478 15.7412 11.1295 15.9105L11.666 17.023C10.4493 17.4338 9.12798 17.5487 7.82906 17.3343L8.05319 16.251C8.09129 16.0681 8.00068 15.8821 7.83085 15.7911L4.73505 14.1335C4.64957 14.0877 4.55432 14.0711 4.4617 14.0815C4.36908 14.0921 4.28042 14.1298 4.20964 14.1931L3.36993 14.9372C2.55403 14.0413 1.98767 12.9749 1.70276 11.8418L2.98664 11.6952C3.18061 11.6742 3.33759 11.534 3.37569 11.3513L4.06556 8.02118C4.10383 7.83811 4.01333 7.65178 3.84316 7.5611L2.35397 6.76395C2.3799 6.71674 2.40353 6.66868 2.43068 6.62163C3.08446 5.48021 4.01104 4.5741 5.08973 3.93244L5.55168 4.86886C5.6348 5.03809 5.82218 5.13615 6.01614 5.11251L9.53434 4.68274C9.7283 4.65911 9.88327 4.51881 9.92014 4.33521L10.2038 2.90057C11.0886 3.02104 11.9658 3.29206 12.796 3.7275C13.4501 4.0707 14.0299 4.49384 14.5319 4.97516L13.2833 6.10043C13.1409 6.22875 13.1008 6.43 13.1845 6.59869L14.699 9.66888C14.7822 9.83795 14.9699 9.93563 15.1638 9.91253L16.7467 9.7192C16.8269 11.0407 16.5343 12.3996 15.8197 13.6466Z" fill="white"/>
<path fill-rule="evenodd" clip-rule="evenodd" d="M10.855 7.39259C10.8133 7.30806 10.7458 7.24101 10.6644 7.1984C10.5824 7.1553 10.4875 7.13648 10.3907 7.14878L6.87177 7.57791C6.67804 7.60234 6.52178 7.74179 6.48603 7.92571L5.82509 11.2608C5.78861 11.4446 5.87995 11.6302 6.05162 11.72L9.16167 13.3519C9.33329 13.4416 9.54479 13.4159 9.68742 13.2878L12.2702 10.9608C12.4121 10.8325 12.4523 10.6315 12.3694 10.4628L10.855 7.39259Z" fill="black"/>
</g>
</svg>
